<svg width="49" height="49" viewBox="0 0 49 49" fill="none" xmlns="http://www.w3.org/2000/svg">
<path d="M18.5862 0C17.7076 0 16.7952 0.304138 16.1531 0.946207C15.511 1.58828 15.2069 2.50069 15.2069 3.37931V5.06897H0V38.8621H18.9241C18.7045 37.7807 18.5862 36.6486 18.5862 35.4828H3.37931V24.3986C4.37621 24.9731 5.52517 25.3448 6.75862 25.3448H21.9824C22.9286 24.0607 24.0776 22.9117 25.3617 21.9655H6.75862C4.74793 21.9655 3.37931 20.5969 3.37931 18.5862V8.44828H40.5517V18.5862C40.5517 18.8566 40.5348 19.11 40.4841 19.3466C41.7007 19.7183 42.8497 20.2252 43.931 20.8503V5.06897H28.7241V3.37931C28.7241 2.50069 28.42 1.58828 27.7779 0.946207C27.1359 0.304138 26.2234 0 25.3448 0H18.5862ZM18.5862 3.37931H25.3448V5.06897H18.5862V3.37931ZM10.1379 15.2069V20.2759H13.5172V15.2069H10.1379ZM30.4138 15.2069V19.3634C31.5141 19.0196 32.6463 18.7875 33.7931 18.6707V15.2069H30.4138ZM35.4828 21.9655C28.0314 21.9655 21.9655 28.0314 21.9655 35.4828C21.9655 42.9341 28.0314 49 35.4828 49C42.9341 49 49 42.9341 49 35.4828C49 28.0314 42.9341 21.9655 35.4828 21.9655ZM35.4828 25.3448C41.0924 25.3448 45.6207 29.8731 45.6207 35.4828C45.6207 41.0924 41.0924 45.6207 35.4828 45.6207C29.8731 45.6207 25.3448 41.0924 25.3448 35.4828C25.3448 29.8731 29.8731 25.3448 35.4828 25.3448ZM33.7931 27.0345V37.1724H42.2414V33.7931H37.1724V27.0345H33.7931Z" fill="#0073BA"/>
</svg>
