<svg width="43" height="43" viewBox="0 0 43 43" fill="none" xmlns="http://www.w3.org/2000/svg">
<path d="M6.84091 0L6.22914 0.793546L0 9.10036V43H43V9.10036L36.7689 0.793546L36.1591 0H6.84091ZM8.79545 3.90909H19.5455V7.81818H5.86364L8.79545 3.90909ZM23.4545 3.90909H34.2045L37.1364 7.81818H23.4545V3.90909ZM3.90909 11.7273H39.0909V39.0909H3.90909V11.7273ZM15.2709 15.6364C14.1939 15.7341 13.3984 16.6977 13.4981 17.7746C13.5978 18.8496 14.5594 19.6451 15.6364 19.5455H27.3636C28.0673 19.5533 28.722 19.1858 29.0817 18.576C29.2542 18.2764 29.345 17.9367 29.345 17.5909C29.345 17.2451 29.2542 16.9055 29.0817 16.6058C28.722 15.996 28.0653 15.6285 27.3636 15.6364H15.2689H15.2709Z" fill="#0073BA"/>
</svg>
