<svg width="56" height="44" viewBox="0 0 56 44" fill="none" xmlns="http://www.w3.org/2000/svg">
<path d="M16.1346 0L17.3458 2.88095C18.1009 4.67238 19.127 9.14991 18.8904 11.2619C15.9582 13.0219 14.1597 14.74 12.7722 16.1731C11.0769 14.8385 7.7231 12.5714 2.15128 12.5714H0V14.6667C0 18.677 1.48654 21.935 2.0179 23.0476C1.48008 24.1518 0 27.2947 0 31.4286V33.5238H2.15128C7.68007 33.5238 11.0748 31.2484 12.7743 29.9221C15.3193 32.4762 18.9485 35.1686 23.5307 37.1905C23.3285 38.4916 23.1693 40.3082 23.7308 42.4286L24.1352 44H25.8154C28.4701 44 30.7569 42.7156 32.6048 41.5779C34.1172 40.6434 34.8486 39.9897 35.2272 39.6775C43.7829 39.3842 49.245 34.8899 52.1686 30.4459C55.1933 25.8552 55.9333 21.2792 55.9333 21.2792L56 20.7554L55.7999 20.2316C55.7999 20.2316 50.8735 7.05467 37.514 6.41562C36.0942 4.73943 34.1086 3.34819 31.3291 2.22514C28.042 0.900952 23.9072 0 19.3615 0H16.1346ZM22.3862 4.45238C25.1011 4.74571 27.6397 5.28 29.6468 6.08876C32.3961 7.19505 34.3108 8.78114 34.7561 9.49352L35.3628 10.4762H36.5718C47.3196 10.4762 51.1854 20.3867 51.4974 21.2143C51.3468 21.9832 50.7229 24.9061 48.5394 28.2208C46.0417 32.009 41.9995 35.619 34.4205 35.619H33.6138L33.0093 36.1429C33.0093 36.1429 31.8734 37.0857 30.3202 38.0411C29.5027 38.5419 28.8078 38.632 27.9667 38.9589C28.0527 38.0013 27.9667 36.6017 27.9667 36.6017L28.4378 34.7684L26.6888 34.1775C21.3622 32.1975 16.8316 28.4659 14.5211 25.8636L13.0411 24.1602L11.4276 25.7316C11.4276 25.7316 8.5621 27.6886 4.84038 28.6126C5.39541 26.157 6.25162 23.9653 6.25162 23.9653L6.72275 23.0476L6.25162 22.1299C6.25162 22.1299 5.32012 19.7246 4.77369 17.1537C8.7385 18.0065 11.4276 20.3636 11.4276 20.3636L13.0411 21.935L14.5211 20.2316C16.4465 18.1133 21.6311 12.8333 29.2445 11.8507L28.6379 7.72514C26.5791 7.98914 24.7828 8.56952 23.0596 9.23371C22.9499 7.47371 22.8574 5.95886 22.3862 4.45238ZM41.95 18.8571C41.0942 18.8571 40.2734 19.1883 39.6682 19.7777C39.063 20.3671 38.7231 21.1665 38.7231 22C38.7231 22.8335 39.063 23.6329 39.6682 24.2223C40.2734 24.8117 41.0942 25.1429 41.95 25.1429C42.8058 25.1429 43.6266 24.8117 44.2318 24.2223C44.8369 23.6329 45.1769 22.8335 45.1769 22C45.1769 21.1665 44.8369 20.3671 44.2318 19.7777C43.6266 19.1883 42.8058 18.8571 41.95 18.8571Z" fill="#0073BA"/>
</svg>
