<svg width="67" height="30" viewBox="0 0 67 30" fill="none" xmlns="http://www.w3.org/2000/svg">
<path d="M51.925 6.37005e-05C47.905 6.37005e-05 44.1083 1.5614 41.4004 4.26585L21.775 21.6636C19.9883 23.448 17.6154 24.4238 15.075 24.4238C9.85458 24.4238 5.58333 20.2138 5.58333 15C5.58333 9.78629 9.85458 5.57626 15.075 5.57626C17.6154 5.57626 19.9883 6.55209 21.8867 8.448L25.0413 11.2361L29.3125 7.50005L25.7392 4.40526C24.3412 3.00376 22.6789 1.89286 20.8485 1.13674C19.0181 0.380629 17.0558 -0.00570679 15.075 6.37005e-05C6.75583 6.37005e-05 0 6.74726 0 15C0 23.2528 6.75583 30 15.075 30C19.095 30 22.8917 28.4387 25.5996 25.7342L45.225 8.33648C47.0117 6.55209 49.3846 5.57626 51.925 5.57626C57.1454 5.57626 61.4167 9.78629 61.4167 15C61.4167 20.2138 57.1454 24.4238 51.925 24.4238C49.4125 24.4238 47.0117 23.448 45.1133 21.5521L41.875 18.7361L37.6875 22.4721L41.2608 25.5948C42.6626 26.9893 44.3261 28.0937 46.1561 28.8449C47.9861 29.596 49.9465 29.9791 51.925 29.9721C60.2442 29.9721 67 23.2528 67 15C67 6.63574 60.2442 6.37005e-05 51.925 6.37005e-05Z" fill="#0073BA"/>
</svg>
