<svg width="24" height="16" viewBox="0 0 24 16" fill="none" xmlns="http://www.w3.org/2000/svg">
<path d="M9.91443 15.4966C9.69018 15.4971 9.46805 15.4533 9.26079 15.3677C9.05352 15.2821 8.8652 15.1564 8.70663 14.9978L1.45989 7.74935C1.29661 7.59187 1.16634 7.40346 1.07666 7.1951C0.986987 6.98674 0.939705 6.76261 0.937575 6.53578C0.935445 6.30895 0.978511 6.08397 1.06426 5.87397C1.15001 5.66396 1.27672 5.47313 1.43701 5.31262C1.59729 5.15211 1.78794 5.02513 1.99782 4.93908C2.20771 4.85304 2.43263 4.80965 2.65946 4.81146C2.88629 4.81327 3.11049 4.86024 3.31897 4.94962C3.52746 5.039 3.71606 5.16901 3.87376 5.33205L9.91272 11.371L20.7863 0.500888C21.1066 0.180336 21.5411 0.000160294 21.9943 1.06904e-07C22.4475 -0.00016008 22.8821 0.179708 23.2027 0.500034C23.5232 0.82036 23.7034 1.25491 23.7036 1.70808C23.7037 2.16125 23.5239 2.59592 23.2035 2.91647L11.1222 14.9978C10.9636 15.1564 10.7753 15.2821 10.5681 15.3677C10.3608 15.4533 10.1387 15.4971 9.91443 15.4966Z" fill="#CAFFFE"/>
<path d="M9.91443 15.4966C9.69018 15.4971 9.46805 15.4533 9.26079 15.3677C9.05352 15.2821 8.8652 15.1564 8.70663 14.9978L1.45989 7.74935C1.29661 7.59187 1.16634 7.40346 1.07666 7.1951C0.986987 6.98674 0.939705 6.76261 0.937575 6.53578C0.935445 6.30895 0.978511 6.08397 1.06426 5.87397C1.15001 5.66396 1.27672 5.47313 1.43701 5.31262C1.59729 5.15211 1.78794 5.02513 1.99782 4.93908C2.20771 4.85304 2.43263 4.80965 2.65946 4.81146C2.88629 4.81327 3.11049 4.86024 3.31897 4.94962C3.52746 5.039 3.71606 5.16901 3.87376 5.33205L9.91272 11.371L20.7863 0.500888C21.1066 0.180336 21.5411 0.000160294 21.9943 1.06904e-07C22.4475 -0.00016008 22.8821 0.179708 23.2027 0.500034C23.5232 0.82036 23.7034 1.25491 23.7036 1.70808C23.7037 2.16125 23.5239 2.59592 23.2035 2.91647L11.1222 14.9978C10.9636 15.1564 10.7753 15.2821 10.5681 15.3677C10.3608 15.4533 10.1387 15.4971 9.91443 15.4966Z" fill="url(#paint0_linear)"/>
<defs>
<linearGradient id="paint0_linear" x1="12.3205" y1="0" x2="12.3205" y2="15.4966" gradientUnits="userSpaceOnUse">
<stop stop-color="white"/>
<stop offset="1" stop-color="white" stop-opacity="0"/>
</linearGradient>
</defs>
</svg>
